#N canvas 82 220 1075 672 10;
#X obj 197 253 dac~;
#X msg 246 129 hit 1;
#X msg 291 160 hit 0;
#X msg 279 58 users \$1;
#X obj 227 -28 hsl 128 15 0.001 1 0 0 empty empty empty -2 -8 0 10
-262144 -1 -1 1200 1;
#X obj 288 93 bng 15 250 50 0 empty empty empty 17 7 0 10 -262144 -1
-1;
#X obj 291 129 pipe 2;
#X text 312 91 hit me;
#X text 241 225 output gain;
#X obj 133 203 bellPend~;
#X obj 204 -2 bng 15 250 50 0 empty empty empty 17 7 0 10 -262144 -1
-1;
#X text 228 -4 hit me;
#X msg 162 34 poke 1;
#X msg 208 75 poke 0;
#X obj 213 35 pipe 10;
#X obj 75 -41 vsl 15 128 5 200 0 0 empty empty empty 0 -9 0 10 -262144
-1 -1 0 1;
#X msg 73 159 amp \$1;
#X obj 103 -42 vsl 15 128 0.9999 1 0 0 empty empty empty 0 -9 0 10
-262144 -1 -1 0 1;
#X msg 101 129 que \$1;
#X obj 132 -41 vsl 15 128 0 10 0 0 empty empty empty 0 -9 0 10 -262144
-1 -1 0 1;
#X msg 129 102 fre \$1;
#X obj 152 233 *~ \$1;
#X obj 198 227 *~ \$1;
#X obj 216 189 hsl 128 15 1 30 0 0 empty empty empty -2 -8 0 10 -262144
-1 -1 8321 1;
#X obj 166 -63 loadbang;
#X msg 244 163 20;
#X obj 508 246 dac~;
#X msg 557 122 hit 1;
#X msg 602 153 hit 0;
#X msg 590 51 users \$1;
#X obj 538 -35 hsl 128 15 0.001 1 0 0 empty empty empty -2 -8 0 10
-262144 -1 -1 1400 1;
#X obj 599 86 bng 15 250 50 0 empty empty empty 17 7 0 10 -262144 -1
-1;
#X obj 602 122 pipe 2;
#X text 623 84 hit me;
#X text 552 218 output gain;
#X obj 444 196 bellPend~;
#X obj 515 -9 bng 15 250 50 0 empty empty empty 17 7 0 10 -262144 -1
-1;
#X text 539 -11 hit me;
#X msg 473 27 poke 1;
#X msg 519 68 poke 0;
#X obj 524 28 pipe 10;
#X obj 386 -48 vsl 15 128 5 200 0 0 empty empty empty 0 -9 0 10 -262144
-1 -1 0 1;
#X msg 384 152 amp \$1;
#X obj 414 -49 vsl 15 128 0.9999 1 0 0 empty empty empty 0 -9 0 10
-262144 -1 -1 0 1;
#X msg 412 122 que \$1;
#X obj 443 -48 vsl 15 128 0 10 0 0 empty empty empty 0 -9 0 10 -262144
-1 -1 0 1;
#X msg 440 95 fre \$1;
#X obj 463 226 *~ \$1;
#X obj 509 220 *~ \$1;
#X obj 527 182 hsl 128 15 1 30 0 0 empty empty empty -2 -8 0 10 -262144
-1 -1 8321 1;
#X obj 477 -70 loadbang;
#X msg 555 156 20;
#X obj 396 573 dac~;
#X msg 445 449 hit 1;
#X msg 490 480 hit 0;
#X msg 478 378 users \$1;
#X obj 426 292 hsl 128 15 0.001 1 0 0 empty empty empty -2 -8 0 10
-262144 -1 -1 1700 1;
#X obj 487 413 bng 15 250 50 0 empty empty empty 17 7 0 10 -262144
-1 -1;
#X obj 490 449 pipe 2;
#X text 511 411 hit me;
#X text 440 545 output gain;
#X obj 332 523 bellPend~;
#X obj 403 318 bng 15 250 50 0 empty empty empty 17 7 0 10 -262144
-1 -1;
#X text 427 316 hit me;
#X msg 361 354 poke 1;
#X msg 407 395 poke 0;
#X obj 412 355 pipe 10;
#X obj 274 279 vsl 15 128 5 200 0 0 empty empty empty 0 -9 0 10 -262144
-1 -1 0 1;
#X msg 272 479 amp \$1;
#X obj 302 278 vsl 15 128 0.9999 1 0 0 empty empty empty 0 -9 0 10
-262144 -1 -1 0 1;
#X msg 300 449 que \$1;
#X obj 331 279 vsl 15 128 0 10 0 0 empty empty empty 0 -9 0 10 -262144
-1 -1 0 1;
#X msg 328 422 fre \$1;
#X obj 351 553 *~ \$1;
#X obj 397 547 *~ \$1;
#X obj 415 509 hsl 128 15 1 30 0 0 empty empty empty -2 -8 0 10 -262144
-1 -1 8321 1;
#X obj 365 257 loadbang;
#X msg 443 483 20;
#X obj 757 566 dac~;
#X msg 806 442 hit 1;
#X msg 851 473 hit 0;
#X msg 839 371 users \$1;
#X obj 787 285 hsl 128 15 0.001 1 0 0 empty empty empty -2 -8 0 10
-262144 -1 -1 0 1;
#X obj 848 406 bng 15 250 50 0 empty empty empty 17 7 0 10 -262144
-1 -1;
#X obj 851 442 pipe 2;
#X text 872 404 hit me;
#X text 801 538 output gain;
#X obj 693 516 bellPend~;
#X obj 764 311 bng 15 250 50 0 empty empty empty 17 7 0 10 -262144
-1 -1;
#X text 788 309 hit me;
#X msg 722 347 poke 1;
#X msg 768 388 poke 0;
#X obj 773 348 pipe 10;
#X obj 635 272 vsl 15 128 5 200 0 0 empty empty empty 0 -9 0 10 -262144
-1 -1 0 1;
#X msg 633 472 amp \$1;
#X obj 663 271 vsl 15 128 0.9999 1 0 0 empty empty empty 0 -9 0 10
-262144 -1 -1 0 1;
#X msg 661 442 que \$1;
#X obj 692 272 vsl 15 128 0 10 0 0 empty empty empty 0 -9 0 10 -262144
-1 -1 0 1;
#X msg 689 415 fre \$1;
#X obj 712 546 *~ \$1;
#X obj 758 540 *~ \$1;
#X obj 776 502 hsl 128 15 1 30 0 0 empty empty empty -2 -8 0 10 -262144
-1 -1 8321 1;
#X obj 726 250 loadbang;
#X msg 804 476 20;
#X connect 1 0 9 0;
#X connect 2 0 9 0;
#X connect 3 0 9 0;
#X connect 4 0 3 0;
#X connect 5 0 1 0;
#X connect 5 0 6 0;
#X connect 6 0 2 0;
#X connect 9 1 21 0;
#X connect 9 2 22 0;
#X connect 10 0 12 0;
#X connect 10 0 14 0;
#X connect 12 0 9 0;
#X connect 13 0 9 0;
#X connect 14 0 13 0;
#X connect 15 0 16 0;
#X connect 16 0 9 0;
#X connect 17 0 18 0;
#X connect 18 0 9 0;
#X connect 19 0 20 0;
#X connect 20 0 9 0;
#X connect 21 0 0 0;
#X connect 22 0 0 1;
#X connect 23 0 21 1;
#X connect 23 0 22 1;
#X connect 24 0 25 0;
#X connect 25 0 23 0;
#X connect 27 0 35 0;
#X connect 28 0 35 0;
#X connect 29 0 35 0;
#X connect 30 0 29 0;
#X connect 31 0 27 0;
#X connect 31 0 32 0;
#X connect 32 0 28 0;
#X connect 35 1 47 0;
#X connect 35 2 48 0;
#X connect 36 0 38 0;
#X connect 36 0 40 0;
#X connect 38 0 35 0;
#X connect 39 0 35 0;
#X connect 40 0 39 0;
#X connect 41 0 42 0;
#X connect 42 0 35 0;
#X connect 43 0 44 0;
#X connect 44 0 35 0;
#X connect 45 0 46 0;
#X connect 46 0 35 0;
#X connect 47 0 26 0;
#X connect 48 0 26 1;
#X connect 49 0 47 1;
#X connect 49 0 48 1;
#X connect 50 0 51 0;
#X connect 51 0 49 0;
#X connect 53 0 61 0;
#X connect 54 0 61 0;
#X connect 55 0 61 0;
#X connect 56 0 55 0;
#X connect 57 0 53 0;
#X connect 57 0 58 0;
#X connect 58 0 54 0;
#X connect 61 1 73 0;
#X connect 61 2 74 0;
#X connect 62 0 64 0;
#X connect 62 0 66 0;
#X connect 64 0 61 0;
#X connect 65 0 61 0;
#X connect 66 0 65 0;
#X connect 67 0 68 0;
#X connect 68 0 61 0;
#X connect 69 0 70 0;
#X connect 70 0 61 0;
#X connect 71 0 72 0;
#X connect 72 0 61 0;
#X connect 73 0 52 0;
#X connect 74 0 52 1;
#X connect 75 0 73 1;
#X connect 75 0 74 1;
#X connect 76 0 77 0;
#X connect 77 0 75 0;
#X connect 79 0 87 0;
#X connect 80 0 87 0;
#X connect 81 0 87 0;
#X connect 82 0 81 0;
#X connect 83 0 79 0;
#X connect 83 0 84 0;
#X connect 84 0 80 0;
#X connect 87 1 99 0;
#X connect 87 2 100 0;
#X connect 88 0 90 0;
#X connect 88 0 92 0;
#X connect 90 0 87 0;
#X connect 91 0 87 0;
#X connect 92 0 91 0;
#X connect 93 0 94 0;
#X connect 94 0 87 0;
#X connect 95 0 96 0;
#X connect 96 0 87 0;
#X connect 97 0 98 0;
#X connect 98 0 87 0;
#X connect 99 0 78 0;
#X connect 100 0 78 1;
#X connect 101 0 99 1;
#X connect 101 0 100 1;
#X connect 102 0 103 0;
#X connect 103 0 101 0;
