#N canvas 437 396 450 300 10;
#X obj 281 266 dac~;
#X msg 231 106 hit 1;
#X msg 264 162 hit 0;
#X obj 280 243 *~ 40;
#X msg 187 75 users \$1;
#X obj 233 39 hsl 128 15 0 1 0 0 empty empty empty -2 -8 0 10 -262144
-1 -1 800 1;
#X obj 217 216 modalBarUI~;
#X obj 289 71 bng 15 250 50 0 empty empty empty 17 7 0 10 -262144 -1
-1;
#X obj 276 106 pipe 2;
#X msg 127 119 b \$1;
#X floatatom 128 20 5 0 0 0 - - -;
#X text 92 2 choose your bell;
#X text 196 21 0 users up to a whole bunch of users;
#X text 313 69 hit me;
#X text 325 238 output gain;
#X connect 1 0 6 0;
#X connect 2 0 6 0;
#X connect 3 0 0 0;
#X connect 4 0 6 0;
#X connect 5 0 4 0;
#X connect 6 1 3 0;
#X connect 7 0 1 0;
#X connect 7 0 8 0;
#X connect 8 0 2 0;
#X connect 9 0 6 0;
#X connect 10 0 9 0;
